<svg width="48" height="48" viewBox="0 0 48 48" fill="none" xmlns="http://www.w3.org/2000/svg">
<rect width="48" height="48" rx="12" fill="#D6D3D1"/>
<path d="M23.8011 31.3977C22.4801 31.393 21.339 31.0876 20.3778 30.4815C19.4167 29.8755 18.6757 29.0019 18.1548 27.8608C17.634 26.7197 17.3759 25.3513 17.3807 23.7557C17.3854 22.1553 17.6458 20.7964 18.1619 19.679C18.6828 18.5616 19.4214 17.7116 20.3778 17.1293C21.339 16.5469 22.4801 16.2557 23.8011 16.2557C25.1222 16.2557 26.2633 16.5492 27.2244 17.1364C28.1856 17.7187 28.9266 18.5687 29.4474 19.6861C29.9683 20.8035 30.2263 22.16 30.2216 23.7557C30.2216 25.3608 29.9612 26.7339 29.4403 27.875C28.9195 29.0161 28.1785 29.8897 27.2173 30.4957C26.2609 31.0971 25.1222 31.3977 23.8011 31.3977ZM23.8011 28.1875C24.483 28.1875 25.0417 27.8324 25.4773 27.1222C25.9176 26.4072 26.1354 25.285 26.1307 23.7557C26.1307 22.7566 26.0313 21.9399 25.8324 21.3054C25.6335 20.6709 25.3589 20.2022 25.0085 19.8991C24.6581 19.5914 24.2557 19.4375 23.8011 19.4375C23.1193 19.4375 22.563 19.7831 22.1321 20.4744C21.7012 21.1657 21.4811 22.2595 21.4716 23.7557C21.4669 24.7737 21.5639 25.6117 21.7628 26.2699C21.9616 26.9233 22.2363 27.4062 22.5866 27.7188C22.9418 28.0312 23.3466 28.1875 23.8011 28.1875Z" fill="#1C1917"/>
</svg>
